# xmcd CD database file
#
# Track frame offsets:
#	150
#	14314
#	26622
#	39712
#	49140
#	61799
#	76366
#	88735
#	101772
#	117824
#	144742
#	158561
#	174999
#	185150
#	202646
#	222037
#	233138
#	252268
#
# Disc length: 3514 seconds
#
# Revision: 0
# Processed by: cddbd v1.5.2PL0 Copyright (c) Steve Scherf et al.
# Submitted via: CDex 1.51
#
DISCID=ea0db812
DTITLE=Banda Sondra Original - Habana Blues
DYEAR=1900
DGENRE=Salsa
TTITLE0=Cansado
TTITLE1=Habaneando
TTITLE2=Sedoceme
TTITLE3=Habana Blues
TTITLE4=Arenas de Soledad
TTITLE5=En Todas Partes
TTITLE6=Eachate P´alla, Echate P´aca
TTITLE7=Amanecer
TTITLE8=Lagrimas Tatuadas
TTITLE9=Superfinos Negros
TTITLE10=Ne Se Vuelve Atras 
TTITLE11=Aprende To Walk
TTITLE12=Felacion
TTITLE13=Rebelion
TTITLE14=Vivamos Juntos
TTITLE15=Se Feliz
TTITLE16=No Se
TTITLE17=No Se
EXTD=
EXTT0=
EXTT1=
EXTT2=
EXTT3=
EXTT4=
EXTT5=
EXTT6=
EXTT7=
EXTT8=
EXTT9=
EXTT10=
EXTT11=
EXTT12=
EXTT13=
EXTT14=
EXTT15=
EXTT16=
EXTT17=
PLAYORDER=
